<svg xmlns="http://www.w3.org/2000/svg" viewBox="0 0 64 64" fill="none">
  <rect width="64" height="64" rx="18" fill="#0b1020"/>
  <path d="M24 20C17.373 20 12 25.373 12 32C12 38.627 17.373 44 24 44C27.711 44 31.028 42.315 33.229 39.673L28.682 35.95C27.581 37.331 25.886 38.212 24 38.212C20.57 38.212 17.788 35.43 17.788 32C17.788 28.57 20.57 25.788 24 25.788C25.886 25.788 27.581 26.669 28.682 28.05L33.229 24.327C31.028 21.685 27.711 20 24 20Z" fill="#e4ff4f"/>
  <path d="M42.5 20C35.597 20 30 25.597 30 32C30 38.403 35.597 44 42.5 44C46.544 44 50.142 42.08 52.426 39.101L47.851 35.55C46.687 37.167 44.737 38.212 42.5 38.212C38.865 38.212 35.788 35.254 35.788 32C35.788 28.746 38.865 25.788 42.5 25.788C44.737 25.788 46.687 26.833 47.851 28.45L52.426 24.899C50.142 21.92 46.544 20 42.5 20Z" fill="#f7f3ea"/>
</svg>
